<?xml version="1.0" standalone="no"?><!DOCTYPE svg PUBLIC "-//W3C//DTD SVG 1.1//EN" "http://www.w3.org/Graphics/SVG/1.1/DTD/svg11.dtd"><svg t="1720239331733" class="icon" viewBox="0 0 1024 1024" version="1.1" xmlns="http://www.w3.org/2000/svg" p-id="16551" xmlns:xlink="http://www.w3.org/1999/xlink" width="200" height="200"><path d="M713.6256 204.8C743.6288 204.8 768 229.2736 768 259.4304c0 30.208-24.3712 54.6816-54.3744 54.6816-245.4016 0-343.04 66.7136-343.04 197.888 0 131.1744 97.6384 197.888 343.04 197.888 30.0032 0 54.3744 24.4736 54.3744 54.6816 0 30.208-24.3712 54.6304-54.3744 54.6304C415.744 819.2 256 692.5312 256 512s159.7952-307.2 457.6256-307.2z" fill="#070707" p-id="16552"></path><path d="M723.6608 331.4688c30.0032 0 44.3392 24.4736 44.3392 54.6816 0 30.208-14.336 43.8272-44.3392 43.8272l-15.2576 0.1024-28.672 0.768-13.4144 0.6656-25.088 1.8432c-95.744 8.8064-121.2928 44.9536-121.2928 78.6432 0 42.0864 48.3328 82.2784 203.7248 82.2784 30.0032 0 44.3392 13.4144 44.3392 43.5712 0 30.208-14.336 54.6816-44.3392 54.6816-208.4864 0-327.3216-54.784-327.3216-180.5312 0-125.696 118.8352-180.5312 327.3216-180.5312z" fill="#D1121B" p-id="16553"></path></svg>