<?xml version="1.0" encoding="UTF-8"?>
<svg id="_图层_1" data-name="图层 1" xmlns="http://www.w3.org/2000/svg" version="1.1" viewBox="0 0 200 200">
  <defs>
    <style>
      .cls-1 {
        fill: #fa4;
      }

      .cls-1, .cls-2, .cls-3, .cls-4 {
        stroke-width: 0px;
      }

      .cls-2 {
        fill: #19b89d;
      }

      .cls-3 {
        fill: #fff;
      }

      .cls-4 {
        fill: #202425;
        isolation: isolate;
        opacity: 0;
      }
    </style>
  </defs>
  <path class="cls-4" d="M25,25h150v150H25V25Z"/>
  <path class="cls-1" d="M100,155c0-2.8,2.2-5,5-5h55c2.8,0,5,2.2,5,5v5c0,2.8-2.2,5-5,5h-55c-2.8,0-5-2.2-5-5v-5Z"/>
  <path class="cls-2" d="M165,100c0,35.9-29.1,65-65,65s-65-29.1-65-65,29.1-65,65-65,65,29.1,65,65Z"/>
  <path class="cls-3" d="M100,80c8.3,0,15-6.7,15-15,0-8.3-6.7-15-15-15h0c-8.3,0-15,6.7-15,15,0,8.3,6.7,15,15,15ZM120,100c0,8.3,6.7,15,15,15s15-6.7,15-15h0c0-8.3-6.7-15-15-15-8.3,0-15,6.7-15,15ZM85,135c0-8.3,6.7-15,15-15s15,6.7,15,15h0c0,8.3-6.7,15-15,15-8.3,0-15-6.7-15-15ZM80,100c0-8.3-6.7-15-15-15-8.3,0-15,6.7-15,15h0c0,8.3,6.7,15,15,15,8.3,0,15-6.7,15-15Z"/>
</svg>