<?xml version="1.0" standalone="no"?><!DOCTYPE svg PUBLIC "-//W3C//DTD SVG 1.1//EN" "http://www.w3.org/Graphics/SVG/1.1/DTD/svg11.dtd"><svg t="1720238483790" class="icon" viewBox="0 0 1024 1024" version="1.1" xmlns="http://www.w3.org/2000/svg" p-id="2305" xmlns:xlink="http://www.w3.org/1999/xlink" width="200" height="200"><path d="M820.073 448.198c-60.832 0-120-19.77-168.665-56.342V646.99c0 130.283-100.374 235.799-224.211 235.799S202.985 777.273 202.985 646.99c0-130.283 100.374-235.798 224.212-235.798 12.383 0 24.405 1.086 36.137 3.114V549.44a96.129 96.129 0 0 0-35.196-6.663c-55.256 0-100.084 47.073-100.084 105.226 0 58.08 44.828 105.226 100.084 105.226 55.184 0 100.012-47.145 100.012-105.226V141.211h125.068c0 97.405 75.1 176.342 167.724 176.342v130.573l-0.869 0.072" p-id="2306"></path></svg>