<?xml version="1.0" encoding="utf-8"?>
<!-- Generator: $$$/GeneralStr/196=Adobe Illustrator 27.6.0, SVG Export Plug-In . SVG Version: 6.00 Build 0)  -->
<svg version="1.1" id="图层_1" xmlns="http://www.w3.org/2000/svg" xmlns:xlink="http://www.w3.org/1999/xlink" x="0px" y="0px"
	 viewBox="0 0 1024 1024" style="enable-background:new 0 0 1024 1024;" xml:space="preserve">
<style type="text/css">
	.st0{fill:#999999;}
	.st1{fill:#19B89D;}
</style>
<g>
	<path class="st0" d="M708.3,648.5H332.8c-14.1,0-25.6,11.5-25.6,25.6c0,14.1,11.5,25.6,25.6,25.6h375.5c14.1,0,25.6-11.5,25.6-25.6
		C733.9,660,722.4,648.5,708.3,648.5z"/>
	<path class="st1" d="M341.3,477.9h102.4c18.9,0,34.1-15.3,34.1-34.1V341.3c0-18.9-15.3-34.1-34.1-34.1H341.3
		c-18.9,0-34.1,15.3-34.1,34.1v102.4C307.2,462.6,322.5,477.9,341.3,477.9z M358.4,358.4h68.3v68.3h-68.3V358.4z"/>
	<path class="st0" d="M708.3,546.1H332.8c-14.1,0-25.6,11.5-25.6,25.6c0,14.1,11.5,25.6,25.6,25.6h375.5c14.1,0,25.6-11.5,25.6-25.6
		C733.9,557.6,722.4,546.1,708.3,546.1z"/>
	<path class="st0" d="M708.3,426.7H537.6c-14.1,0-25.6,11.5-25.6,25.6s11.5,25.6,25.6,25.6h170.7c14.1,0,25.6-11.5,25.6-25.6
		S722.4,426.7,708.3,426.7z"/>
	<path class="st0" d="M716.8,170.7H307.2c-75.4,0-136.5,61.1-136.5,136.5v409.6c0,75.4,61.1,136.5,136.5,136.5h409.6
		c75.4,0,136.5-61.1,136.5-136.5V307.2C853.3,231.8,792.2,170.7,716.8,170.7z M802.1,716.8c0,47.1-38.2,85.3-85.3,85.3H307.2
		c-47.1,0-85.3-38.2-85.3-85.3V307.2c0-47.1,38.2-85.3,85.3-85.3h409.6c0,0,0,0,0,0c47.1,0,85.3,38.2,85.3,85.3V716.8z"/>
	<path class="st0" d="M708.3,307.2H537.6c-14.1,0-25.6,11.5-25.6,25.6s11.5,25.6,25.6,25.6h170.7c14.1,0,25.6-11.5,25.6-25.6
		S722.4,307.2,708.3,307.2z"/>
</g>
</svg>
