<?xml version="1.0" standalone="no"?><!DOCTYPE svg PUBLIC "-//W3C//DTD SVG 1.1//EN" "http://www.w3.org/Graphics/SVG/1.1/DTD/svg11.dtd"><svg t="1720239091028" class="icon" viewBox="0 0 1024 1024" version="1.1" xmlns="http://www.w3.org/2000/svg" p-id="14581" xmlns:xlink="http://www.w3.org/1999/xlink" width="200" height="200"><path d="M492.8 467.2h249.6c32 0 64-25.6 64-64 0-32-25.6-64-64-64H492.8c-32 0-64 25.6-64 64s25.6 64 64 64" fill="#D81E06" p-id="14582"></path><path d="M742.4 761.6H492.8c-32 0-64 25.6-64 64 0 32 25.6 64 64 64h249.6c32 0 64-25.6 64-64 0-32-32-64-64-64m-64-147.2c0-32-25.6-64-64-64H345.6V198.4c0-32-25.6-64-64-64-32 0-64 25.6-64 64v416c0 32 25.6 64 64 64h332.8c38.4 0 64-25.6 64-64" fill="#D81E06" p-id="14583"></path></svg>