<?xml version="1.0" standalone="no"?><!DOCTYPE svg PUBLIC "-//W3C//DTD SVG 1.1//EN" "http://www.w3.org/Graphics/SVG/1.1/DTD/svg11.dtd"><svg t="1719269539679" class="icon" viewBox="0 0 1024 1024" version="1.1" xmlns="http://www.w3.org/2000/svg" p-id="4094" xmlns:xlink="http://www.w3.org/1999/xlink" width="200" height="200"><path d="M512 959.3C265.3 959.3 64.7 758.7 64.7 512S265.3 64.7 512 64.7 959.3 265.3 959.3 512 758.7 959.3 512 959.3z m0-823.1c-207.2 0-375.8 168.6-375.8 375.8S304.8 887.8 512 887.8 887.8 719.2 887.8 512 719.2 136.2 512 136.2z" fill="#57576D" p-id="4095" data-spm-anchor-id="a313x.collections_detail.0.i29.f7873a81pEkoI8" class="selected"></path><path d="M512 547.8c-19.8 0-35.8-16-35.8-35.8V297.3c0-19.8 16-35.8 35.8-35.8s35.8 16 35.8 35.8V512c0 19.8-16 35.8-35.8 35.8z" fill="#57576D" p-id="4096" data-spm-anchor-id="a313x.collections_detail.0.i28.f7873a81pEkoI8" class="selected"></path><path d="M655.1 655.1c-7.5 0-15-2.3-21.4-7.2L490.5 540.6c-15.8-11.8-19-34.3-7.1-50.1 11.8-15.8 34.3-19 50.1-7.1l143.1 107.4c15.8 11.8 19 34.3 7.1 50.1-7 9.3-17.7 14.2-28.6 14.2z" fill="#19b89d" p-id="4097" data-spm-anchor-id="a313x.collections_detail.0.i27.f7873a81pEkoI8" class=""></path></svg>