<?xml version="1.0" standalone="no"?><!DOCTYPE svg PUBLIC "-//W3C//DTD SVG 1.1//EN" "http://www.w3.org/Graphics/SVG/1.1/DTD/svg11.dtd"><svg t="1719268340314" class="icon" viewBox="0 0 1024 1024" version="1.1" xmlns="http://www.w3.org/2000/svg" p-id="7597" xmlns:xlink="http://www.w3.org/1999/xlink" width="200" height="200"><path d="M785.066667 170.666667v682.666666H238.933333V170.666667h546.133334m34.133333-68.266667H204.8c-18.773333 0-34.133333 15.36-34.133333 34.133333v750.933334c0 18.773333 15.36 34.133333 34.133333 34.133333h614.4c18.773333 0 34.133333-15.36 34.133333-34.133333V136.533333c0-18.773333-15.36-34.133333-34.133333-34.133333z" p-id="7598" data-spm-anchor-id="a313x.search_index.0.i22.161f3a81VOUFmr" class="" fill="#57576D"></path><path d="M392.533333 486.4c-42.666667 0-76.8-34.133333-76.8-76.8s34.133333-76.8 76.8-76.8 76.8 34.133333 76.8 76.8-34.133333 76.8-76.8 76.8z m0-102.4c-14.506667 0-25.6 11.093333-25.6 25.6s11.093333 25.6 25.6 25.6 25.6-11.093333 25.6-25.6-11.093333-25.6-25.6-25.6z" fill="#19b89d" p-id="7599" data-spm-anchor-id="a313x.search_index.0.i24.161f3a81VOUFmr" class="selected"></path><path d="M512 691.2c-81.92 0-149.333333-67.413333-149.333333-149.333333S430.08 392.533333 512 392.533333s149.333333 67.413333 149.333333 149.333334S593.92 691.2 512 691.2z m0-247.466667c-53.76 0-98.133333 44.373333-98.133333 98.133334S458.24 640 512 640s98.133333-44.373333 98.133333-98.133333S565.76 443.733333 512 443.733333z" fill="#19b89d" p-id="7600" data-spm-anchor-id="a313x.search_index.0.i23.161f3a81VOUFmr" class="selected"></path><path d="M631.466667 486.4c-42.666667 0-76.8-34.133333-76.8-76.8s34.133333-76.8 76.8-76.8 76.8 34.133333 76.8 76.8-34.133333 76.8-76.8 76.8z m0-102.4c-14.506667 0-25.6 11.093333-25.6 25.6s11.093333 25.6 25.6 25.6 25.6-11.093333 25.6-25.6-11.093333-25.6-25.6-25.6z" fill="#19b89d" p-id="7601" data-spm-anchor-id="a313x.search_index.0.i25.161f3a81VOUFmr" class="selected"></path></svg>