<?xml version="1.0" standalone="no"?><!DOCTYPE svg PUBLIC "-//W3C//DTD SVG 1.1//EN" "http://www.w3.org/Graphics/SVG/1.1/DTD/svg11.dtd"><svg t="1719269375835" class="icon" viewBox="0 0 1024 1024" version="1.1" xmlns="http://www.w3.org/2000/svg" p-id="2161" data-spm-anchor-id="a313x.collections_detail.0.i3.f7873a81pEkoI8" xmlns:xlink="http://www.w3.org/1999/xlink" width="200" height="200"><path d="M512.8 883.5c-30.3 0-61-7.9-88-23.6-113.8-66-307.9-209.6-327.4-430.3C90 357 112.8 283.3 160 228c44.6-52.2 106.2-83.1 173.5-87 61-1.8 118 15.4 166 50.2 8.6 6.2 18.4 6.2 26.9 0 50.5-36.7 108.2-54.1 166.1-50.2 66.7 3.9 127.6 34.4 171.6 85.9 47.2 55.3 70 129.3 62.5 203.1-19.5 218.3-213.5 363-327.4 429.8-25.9 15.8-56 23.7-86.4 23.7zM343.5 207.1c-2.3 0-4.7 0-7 0.1-48.3 2.8-93.4 25.4-126.1 63.8-35.5 41.6-52.7 97.2-47.1 152.4 16.9 191.3 192 319.7 294.8 379.2 33.5 19.5 75.5 19.6 107.2 0.4 103.4-60.6 278.5-190 295.4-379.2 5.7-56.3-11.4-112.2-46.9-153.8-32.2-37.7-76.6-60-125.2-62.8h-0.3c-53.6-3.6-96.6 18.5-122.9 37.7-31.8 23.2-73 23.2-104.8 0-34.1-24.8-74.5-37.8-117.1-37.8z" fill="#57576D" p-id="2162" data-spm-anchor-id="a313x.collections_detail.0.i2.f7873a81pEkoI8" class=""></path><path d="M348.7 621.3c-5 0-10-1.1-14.8-3.5-116.3-58.1-117.6-189.6-117.6-195.1 0-18.3 14.8-33.1 33.1-33.1 18.2 0 33 14.8 33.1 33 0 4.3 2 96.5 81 136 16.4 8.2 23 28.1 14.8 44.4-5.8 11.7-17.5 18.3-29.6 18.3z m-66.2-198.6h0.2-0.2z" fill="#19b89d" p-id="2163" data-spm-anchor-id="a313x.collections_detail.0.i1.f7873a81pEkoI8" class="selected"></path></svg>