<?xml version="1.0" standalone="no"?><!DOCTYPE svg PUBLIC "-//W3C//DTD SVG 1.1//EN" "http://www.w3.org/Graphics/SVG/1.1/DTD/svg11.dtd"><svg t="1719267360673" class="icon" viewBox="0 0 1024 1024" version="1.1" xmlns="http://www.w3.org/2000/svg" p-id="3725" xmlns:xlink="http://www.w3.org/1999/xlink" width="200" height="200"><path d="M509.44 966.7584a451.7888 451.7888 0 1 1 451.7888-451.7888 452.3008 452.3008 0 0 1-451.7888 451.7888z m0-842.1376a390.3488 390.3488 0 1 0 390.3488 390.3488A390.7584 390.7584 0 0 0 509.44 124.6208z" fill="#57576D" p-id="3726"></path><path d="M508.0576 711.2192a181.0432 181.0432 0 0 1-156.8768-91.1872A30.72 30.72 0 1 1 404.48 589.6192a119.04 119.04 0 0 0 209.152-4.096 30.72 30.72 0 1 1 54.528 28.3136 180.0704 180.0704 0 0 1-160.1024 97.3824z" fill="#19b89d" p-id="3727" data-spm-anchor-id="a313x.collections_detail.0.i3.27f03a81YCbCAd" class="selected"></path></svg>