<?xml version="1.0" standalone="no"?><!DOCTYPE svg PUBLIC "-//W3C//DTD SVG 1.1//EN" "http://www.w3.org/Graphics/SVG/1.1/DTD/svg11.dtd"><svg t="1719268161816" class="icon" viewBox="0 0 1024 1024" version="1.1" xmlns="http://www.w3.org/2000/svg" p-id="4112" xmlns:xlink="http://www.w3.org/1999/xlink" width="200" height="200"><path d="M785.066667 174.08v682.666667H238.933333v-682.666667h546.133334m34.133333-68.266667H204.8c-18.773333 0-34.133333 15.36-34.133333 34.133334v750.933333c0 18.773333 15.36 34.133333 34.133333 34.133333h614.4c18.773333 0 34.133333-15.36 34.133333-34.133333v-750.933333c0-18.773333-15.36-34.133333-34.133333-34.133334z" p-id="4113" data-spm-anchor-id="a313x.search_index.0.i4.161f3a81VOUFmr" class="selected" fill="#57576D"></path><path d="M691.2 477.866667c-5.12 0-10.24-1.706667-14.506667-4.266667L588.8 414.72l-87.893333 58.88c-7.68 5.12-17.92 5.973333-26.453334 0.853333-8.533333-4.266667-13.653333-12.8-13.653333-22.186666V105.813333h51.2v298.666667l62.293333-41.813333c8.533333-5.973333 19.626667-5.973333 28.16 0l62.293334 41.813333v-298.666667h51.2V452.266667c0 9.386667-5.12 17.92-13.653334 22.186666-2.56 2.56-6.826667 3.413333-11.093333 3.413334z" fill="#19b89d" p-id="4114" data-spm-anchor-id="a313x.search_index.0.i3.161f3a81VOUFmr" class=""></path></svg>